<?xml version="1.0" standalone="no"?>
<!DOCTYPE svg PUBLIC "-//W3C//DTD SVG 20010904//EN"
 "http://www.w3.org/TR/2001/REC-SVG-20010904/DTD/svg10.dtd">
<svg version="1.0" xmlns="http://www.w3.org/2000/svg"
 width="1766.000000pt" height="1003.000000pt" viewBox="0 0 1766.000000 1003.000000"
 preserveAspectRatio="xMidYMid meet">

<g transform="translate(0.000000,1003.000000) scale(0.100000,-0.100000)"
fill="#000000" stroke="none">
<path d="M445 9578 l-90 -93 93 90 c85 83 97 95 89 95 -1 0 -43 -42 -92 -92z"/>
<path d="M4045 9578 l-90 -93 93 90 c50 49 92 91 92 92 0 8 -12 -4 -95 -89z"/>
<path d="M5845 9578 l-90 -93 93 90 c85 83 97 95 89 95 -1 0 -43 -42 -92 -92z"/>
<path d="M7645 9578 l-90 -93 93 90 c85 83 97 95 89 95 -1 0 -43 -42 -92 -92z"/>
<path d="M8545 9578 l-90 -93 93 90 c85 83 97 95 89 95 -1 0 -43 -42 -92 -92z"/>
<path d="M9445 9578 l-90 -93 93 90 c85 83 97 95 89 95 -1 0 -43 -42 -92 -92z"/>
<path d="M11245 9578 l-90 -93 93 90 c85 83 97 95 89 95 -1 0 -43 -42 -92 -92z"/>
<path d="M14845 9578 l-90 -93 93 90 c85 83 97 95 89 95 -1 0 -43 -42 -92 -92z"/>
<path d="M16645 9578 l-90 -93 93 90 c85 83 97 95 89 95 -1 0 -43 -42 -92 -92z"/>
<path d="M1338 9653 c6 -2 18 -2 25 0 6 3 1 5 -13 5 -14 0 -19 -2 -12 -5z"/>
<path d="M2238 9653 c6 -2 18 -2 25 0 6 3 1 5 -13 5 -14 0 -19 -2 -12 -5z"/>
<path d="M6738 9653 c6 -2 18 -2 25 0 6 3 1 5 -13 5 -14 0 -19 -2 -12 -5z"/>
<path d="M12138 9653 c6 -2 18 -2 25 0 6 3 1 5 -13 5 -14 0 -19 -2 -12 -5z"/>
<path d="M13038 9653 c6 -2 18 -2 25 0 6 3 1 5 -13 5 -14 0 -19 -2 -12 -5z"/>
<path d="M17538 9653 c6 -2 18 -2 25 0 6 3 1 5 -13 5 -14 0 -19 -2 -12 -5z"/>
<path d="M1290 9628 c-11 -12 -20 -34 -20 -48 0 -14 9 -36 20 -48 29 -31 36
-28 11 4 -12 15 -21 34 -21 44 0 10 9 29 21 44 25 32 18 35 -11 4z"/>
<path d="M1399 9624 c12 -15 21 -34 21 -44 0 -10 -9 -29 -21 -44 -25 -32 -18
-35 11 -4 11 12 20 34 20 48 0 14 -9 36 -20 48 -29 31 -36 28 -11 -4z"/>
<path d="M2190 9628 c-11 -12 -20 -34 -20 -48 0 -14 9 -36 20 -48 29 -31 36
-28 11 4 -12 15 -21 34 -21 44 0 10 9 29 21 44 25 32 18 35 -11 4z"/>
<path d="M2299 9624 c12 -15 21 -34 21 -44 0 -10 -9 -29 -21 -44 -25 -32 -18
-35 11 -4 11 12 20 34 20 48 0 14 -9 36 -20 48 -29 31 -36 28 -11 -4z"/>
<path d="M6690 9628 c-11 -12 -20 -34 -20 -48 0 -14 9 -36 20 -48 29 -31 36
-28 11 4 -12 15 -21 34 -21 44 0 10 9 29 21 44 25 32 18 35 -11 4z"/>
<path d="M6799 9624 c12 -15 21 -34 21 -44 0 -10 -9 -29 -21 -44 -25 -32 -18
-35 11 -4 11 12 20 34 20 48 0 14 -9 36 -20 48 -29 31 -36 28 -11 -4z"/>
<path d="M12090 9628 c-11 -12 -20 -34 -20 -48 0 -14 9 -36 20 -48 29 -31 36
-28 11 4 -12 15 -21 34 -21 44 0 10 9 29 21 44 25 32 18 35 -11 4z"/>
<path d="M12199 9624 c12 -15 21 -34 21 -44 0 -10 -9 -29 -21 -44 -25 -32 -18
-35 11 -4 11 12 20 34 20 48 0 14 -9 36 -20 48 -29 31 -36 28 -11 -4z"/>
<path d="M12990 9628 c-11 -12 -20 -34 -20 -48 0 -14 9 -36 20 -48 29 -31 36
-28 11 4 -12 15 -21 34 -21 44 0 10 9 29 21 44 25 32 18 35 -11 4z"/>
<path d="M13099 9624 c12 -15 21 -34 21 -44 0 -10 -9 -29 -21 -44 -25 -32 -18
-35 11 -4 11 12 20 34 20 48 0 14 -9 36 -20 48 -29 31 -36 28 -11 -4z"/>
<path d="M17490 9628 c-11 -12 -20 -34 -20 -48 0 -14 9 -36 20 -48 29 -31 36
-28 11 4 -12 15 -21 34 -21 44 0 10 9 29 21 44 25 32 18 35 -11 4z"/>
<path d="M17599 9624 c12 -15 21 -34 21 -44 0 -10 -9 -29 -21 -44 -25 -32 -18
-35 11 -4 11 12 20 34 20 48 0 14 -9 36 -20 48 -29 31 -36 28 -11 -4z"/>
<path d="M3134 9589 c-10 -17 13 -36 27 -22 12 12 4 33 -11 33 -5 0 -12 -5
-16 -11z m26 -9 c0 -5 -4 -10 -10 -10 -5 0 -10 5 -10 10 0 6 5 10 10 10 6 0
10 -4 10 -10z"/>
<path d="M4934 9589 c-10 -17 13 -36 27 -22 12 12 4 33 -11 33 -5 0 -12 -5
-16 -11z m26 -9 c0 -5 -4 -10 -10 -10 -5 0 -10 5 -10 10 0 6 5 10 10 10 6 0
10 -4 10 -10z"/>
<path d="M10334 9589 c-10 -17 13 -36 27 -22 12 12 4 33 -11 33 -5 0 -12 -5
-16 -11z m26 -9 c0 -5 -4 -10 -10 -10 -5 0 -10 5 -10 10 0 6 5 10 10 10 6 0
10 -4 10 -10z"/>
<path d="M13934 9589 c-10 -17 13 -36 27 -22 12 12 4 33 -11 33 -5 0 -12 -5
-16 -11z m26 -9 c0 -5 -4 -10 -10 -10 -5 0 -10 5 -10 10 0 6 5 10 10 10 6 0
10 -4 10 -10z"/>
<path d="M15734 9589 c-10 -17 13 -36 27 -22 12 12 4 33 -11 33 -5 0 -12 -5
-16 -11z m26 -9 c0 -5 -4 -10 -10 -10 -5 0 -10 5 -10 10 0 6 5 10 10 10 6 0
10 -4 10 -10z"/>
<path d="M1338 9503 c6 -2 18 -2 25 0 6 3 1 5 -13 5 -14 0 -19 -2 -12 -5z"/>
<path d="M2238 9503 c6 -2 18 -2 25 0 6 3 1 5 -13 5 -14 0 -19 -2 -12 -5z"/>
<path d="M6738 9503 c6 -2 18 -2 25 0 6 3 1 5 -13 5 -14 0 -19 -2 -12 -5z"/>
<path d="M12138 9503 c6 -2 18 -2 25 0 6 3 1 5 -13 5 -14 0 -19 -2 -12 -5z"/>
<path d="M13038 9503 c6 -2 18 -2 25 0 6 3 1 5 -13 5 -14 0 -19 -2 -12 -5z"/>
<path d="M17538 9503 c6 -2 18 -2 25 0 6 3 1 5 -13 5 -14 0 -19 -2 -12 -5z"/>
<path d="M1345 8678 l-90 -93 93 90 c85 83 97 95 89 95 -1 0 -43 -42 -92 -92z"/>
<path d="M4945 8678 l-90 -93 93 90 c50 49 92 91 92 92 0 8 -12 -4 -95 -89z"/>
<path d="M7645 8678 l-90 -93 93 90 c85 83 97 95 89 95 -1 0 -43 -42 -92 -92z"/>
<path d="M12145 8678 l-90 -93 93 90 c85 83 97 95 89 95 -1 0 -43 -42 -92 -92z"/>
<path d="M15745 8678 l-90 -93 93 90 c85 83 97 95 89 95 -1 0 -43 -42 -92 -92z"/>
<path d="M395 8735 c-50 -49 -15 -135 55 -135 41 0 80 39 80 80 0 41 -39 80
-80 80 -19 0 -40 -9 -55 -25z m100 -10 c14 -13 25 -33 25 -45 0 -27 -43 -70
-70 -70 -27 0 -70 43 -70 70 0 27 43 70 70 70 12 0 32 -11 45 -25z"/>
<path d="M2238 8753 c6 -2 18 -2 25 0 6 3 1 5 -13 5 -14 0 -19 -2 -12 -5z"/>
<path d="M3995 8735 c-50 -49 -15 -135 55 -135 41 0 80 39 80 80 0 41 -39 80
-80 80 -19 0 -40 -9 -55 -25z m100 -10 c14 -13 25 -33 25 -45 0 -27 -43 -70
-70 -70 -27 0 -70 43 -70 70 0 27 43 70 70 70 12 0 32 -11 45 -25z"/>
<path d="M5795 8735 c-16 -15 -25 -36 -25 -55 0 -19 9 -40 25 -55 15 -16 36
-25 55 -25 19 0 40 9 55 25 16 15 25 36 25 55 0 19 -9 40 -25 55 -15 16 -36
25 -55 25 -19 0 -40 -9 -55 -25z m100 -10 c14 -13 25 -33 25 -45 0 -11 -11
-32 -25 -45 -13 -14 -33 -25 -45 -25 -11 0 -32 11 -45 25 -14 13 -25 34 -25
45 0 12 11 32 25 45 13 14 34 25 45 25 12 0 32 -11 45 -25z"/>
<path d="M9395 8735 c-16 -15 -25 -36 -25 -55 0 -19 9 -40 25 -55 15 -16 36
-25 55 -25 19 0 40 9 55 25 16 15 25 36 25 55 0 19 -9 40 -25 55 -15 16 -36
25 -55 25 -19 0 -40 -9 -55 -25z m100 -10 c14 -13 25 -33 25 -45 0 -11 -11
-32 -25 -45 -13 -14 -33 -25 -45 -25 -11 0 -32 11 -45 25 -14 13 -25 34 -25
45 0 12 11 32 25 45 13 14 34 25 45 25 12 0 32 -11 45 -25z"/>
<path d="M10338 8753 c6 -2 18 -2 25 0 6 3 1 5 -13 5 -14 0 -19 -2 -12 -5z"/>
<path d="M11195 8735 c-50 -49 -15 -135 55 -135 41 0 80 39 80 80 0 41 -39 80
-80 80 -19 0 -40 -9 -55 -25z m100 -10 c14 -13 25 -33 25 -45 0 -27 -43 -70
-70 -70 -27 0 -70 43 -70 70 0 27 43 70 70 70 11 0 32 -11 45 -25z"/>
<path d="M13038 8753 c6 -2 18 -2 25 0 6 3 1 5 -13 5 -14 0 -19 -2 -12 -5z"/>
<path d="M14795 8735 c-50 -49 -15 -135 55 -135 41 0 80 39 80 80 0 41 -39 80
-80 80 -19 0 -40 -9 -55 -25z m100 -10 c14 -13 25 -33 25 -45 0 -27 -43 -70
-70 -70 -27 0 -70 43 -70 70 0 27 43 70 70 70 11 0 32 -11 45 -25z"/>
<path d="M16595 8735 c-50 -49 -15 -135 55 -135 41 0 80 39 80 80 0 41 -39 80
-80 80 -19 0 -40 -9 -55 -25z m100 -10 c14 -13 25 -33 25 -45 0 -27 -43 -70
-70 -70 -27 0 -70 43 -70 70 0 27 43 70 70 70 12 0 32 -11 45 -25z"/>
<path d="M2190 8728 c-11 -12 -20 -34 -20 -48 0 -14 9 -36 20 -48 29 -31 36
-28 11 4 -12 15 -21 34 -21 44 0 10 9 29 21 44 25 32 18 35 -11 4z"/>
<path d="M2299 8724 c12 -15 21 -34 21 -44 0 -10 -9 -29 -21 -44 -25 -32 -18
-35 11 -4 11 12 20 34 20 48 0 14 -9 36 -20 48 -29 31 -36 28 -11 -4z"/>
<path d="M10290 8728 c-11 -12 -20 -34 -20 -48 0 -14 9 -36 20 -48 29 -31 36
-28 11 4 -12 15 -21 34 -21 44 0 10 9 29 21 44 25 32 18 35 -11 4z"/>
<path d="M10399 8724 c12 -15 21 -34 21 -44 0 -10 -9 -29 -21 -44 -25 -32 -18
-35 11 -4 11 12 20 34 20 48 0 14 -9 36 -20 48 -29 31 -36 28 -11 -4z"/>
<path d="M12990 8728 c-11 -12 -20 -34 -20 -48 0 -14 9 -36 20 -48 29 -31 36
-28 11 4 -12 15 -21 34 -21 44 0 10 9 29 21 44 25 32 18 35 -11 4z"/>
<path d="M13099 8724 c12 -15 21 -34 21 -44 0 -10 -9 -29 -21 -44 -25 -32 -18
-35 11 -4 11 12 20 34 20 48 0 14 -9 36 -20 48 -29 31 -36 28 -11 -4z"/>
<path d="M6717 8712 c-22 -24 -21 -45 1 -65 24 -22 45 -21 65 1 22 24 21 45
-1 65 -24 22 -45 21 -65 -1z m63 -7 c26 -32 -13 -81 -47 -59 -35 22 -23 74 17
74 10 0 23 -7 30 -15z"/>
<path d="M17517 8712 c-22 -24 -21 -45 1 -65 24 -22 45 -21 65 1 22 24 21 45
-1 65 -24 22 -45 21 -65 -1z m63 -7 c26 -32 -13 -81 -47 -59 -35 22 -23 74 17
74 10 0 23 -7 30 -15z"/>
<path d="M3144 8678 l-29 -33 33 29 c30 28 37 36 29 36 -2 0 -16 -15 -33 -32z"/>
<path d="M8544 8678 l-29 -33 33 29 c30 28 37 36 29 36 -2 0 -16 -15 -33 -32z"/>
<path d="M13944 8678 l-29 -33 33 29 c30 28 37 36 29 36 -2 0 -16 -15 -33 -32z"/>
<path d="M2238 8603 c6 -2 18 -2 25 0 6 3 1 5 -13 5 -14 0 -19 -2 -12 -5z"/>
<path d="M10338 8603 c6 -2 18 -2 25 0 6 3 1 5 -13 5 -14 0 -19 -2 -12 -5z"/>
<path d="M13038 8603 c6 -2 18 -2 25 0 6 3 1 5 -13 5 -14 0 -19 -2 -12 -5z"/>
<path d="M8535 7790 c-359 -359 -447 -452 -437 -462 10 -10 103 78 462 437
248 248 449 454 447 459 -2 6 -7 11 -13 13 -5 2 -211 -199 -459 -447z"/>
<path d="M1345 7778 l-90 -93 93 90 c85 83 97 95 89 95 -1 0 -43 -42 -92 -92z"/>
<path d="M2245 7778 l-90 -93 93 90 c85 83 97 95 89 95 -1 0 -43 -42 -92 -92z"/>
<path d="M6745 7778 l-90 -93 93 90 c85 83 97 95 89 95 -1 0 -43 -42 -92 -92z"/>
<path d="M12145 7778 l-90 -93 93 90 c85 83 97 95 89 95 -1 0 -43 -42 -92 -92z"/>
<path d="M13045 7778 l-90 -93 93 90 c85 83 97 95 89 95 -1 0 -43 -42 -92 -92z"/>
<path d="M17545 7778 l-90 -93 93 90 c85 83 97 95 89 95 -1 0 -43 -42 -92 -92z"/>
<path d="M395 7835 c-50 -49 -15 -135 55 -135 41 0 80 39 80 80 0 41 -39 80
-80 80 -19 0 -40 -9 -55 -25z m100 -10 c14 -13 25 -33 25 -45 0 -27 -43 -70
-70 -70 -27 0 -70 43 -70 70 0 27 43 70 70 70 12 0 32 -11 45 -25z"/>
<path d="M3138 7853 c6 -2 18 -2 25 0 6 3 1 5 -13 5 -14 0 -19 -2 -12 -5z"/>
<path d="M7595 7835 c-16 -15 -25 -36 -25 -55 0 -19 9 -40 25 -55 15 -16 36
-25 55 -25 19 0 40 9 55 25 16 15 25 36 25 55 0 19 -9 40 -25 55 -15 16 -36
25 -55 25 -19 0 -40 -9 -55 -25z m100 -10 c14 -13 25 -33 25 -45 0 -11 -11
-32 -25 -45 -13 -14 -33 -25 -45 -25 -11 0 -32 11 -45 25 -14 13 -25 34 -25
45 0 12 11 32 25 45 13 14 34 25 45 25 12 0 32 -11 45 -25z"/>
<path d="M9395 7835 c-16 -15 -25 -36 -25 -55 0 -19 9 -40 25 -55 15 -16 36
-25 55 -25 19 0 40 9 55 25 16 15 25 36 25 55 0 19 -9 40 -25 55 -15 16 -36
25 -55 25 -19 0 -40 -9 -55 -25z m100 -10 c14 -13 25 -33 25 -45 0 -11 -11
-32 -25 -45 -13 -14 -33 -25 -45 -25 -11 0 -32 11 -45 25 -14 13 -25 34 -25
45 0 12 11 32 25 45 13 14 34 25 45 25 12 0 32 -11 45 -25z"/>
<path d="M10338 7853 c6 -2 18 -2 25 0 6 3 1 5 -13 5 -14 0 -19 -2 -12 -5z"/>
<path d="M11195 7835 c-50 -49 -15 -135 55 -135 41 0 80 39 80 80 0 41 -39 80
-80 80 -19 0 -40 -9 -55 -25z m100 -10 c14 -13 25 -33 25 -45 0 -27 -43 -70
-70 -70 -27 0 -70 43 -70 70 0 27 43 70 70 70 11 0 32 -11 45 -25z"/>
<path d="M13938 7853 c6 -2 18 -2 25 0 6 3 1 5 -13 5 -14 0 -19 -2 -12 -5z"/>
<path d="M3090 7828 c-11 -12 -20 -34 -20 -48 0 -14 9 -36 20 -48 29 -31 36
-28 11 4 -12 15 -21 34 -21 44 0 10 9 29 21 44 25 32 18 35 -11 4z"/>
<path d="M3199 7824 c12 -15 21 -34 21 -44 0 -10 -9 -29 -21 -44 -25 -32 -18
-35 11 -4 11 12 20 34 20 48 0 14 -9 36 -20 48 -29 31 -36 28 -11 -4z"/>
<path d="M10290 7828 c-11 -12 -20 -34 -20 -48 0 -14 9 -36 20 -48 29 -31 36
-28 11 4 -12 15 -21 34 -21 44 0 10 9 29 21 44 25 32 18 35 -11 4z"/>
<path d="M10399 7824 c12 -15 21 -34 21 -44 0 -10 -9 -29 -21 -44 -25 -32 -18
-35 11 -4 11 12 20 34 20 48 0 14 -9 36 -20 48 -29 31 -36 28 -11 -4z"/>
<path d="M13890 7828 c-11 -12 -20 -34 -20 -48 0 -14 9 -36 20 -48 29 -31 36
-28 11 4 -12 15 -21 34 -21 44 0 10 9 29 21 44 25 32 18 35 -11 4z"/>
<path d="M13999 7824 c12 -15 21 -34 21 -44 0 -10 -9 -29 -21 -44 -25 -32 -18
-35 11 -4 11 12 20 34 20 48 0 14 -9 36 -20 48 -29 31 -36 28 -11 -4z"/>
<path d="M4016 7814 c-31 -30 -9 -84 34 -84 24 0 50 26 50 50 0 24 -26 50 -50
50 -10 0 -26 -7 -34 -16z m64 -9 c26 -32 -13 -81 -47 -59 -35 22 -23 74 17 74
10 0 23 -7 30 -15z"/>
<path d="M5816 7814 c-9 -8 -16 -24 -16 -34 0 -10 7 -26 16 -34 8 -9 24 -16
34 -16 10 0 26 7 34 16 9 8 16 24 16 34 0 10 -7 26 -16 34 -8 9 -24 16 -34 16
-10 0 -26 -7 -34 -16z m64 -9 c26 -32 -13 -81 -47 -59 -35 22 -23 74 17 74 10
0 23 -7 30 -15z"/>
<path d="M14816 7814 c-31 -30 -9 -84 34 -84 24 0 50 26 50 50 0 24 -26 50
-50 50 -10 0 -26 -7 -34 -16z m64 -9 c26 -32 -13 -81 -47 -59 -35 22 -23 74
17 74 10 0 23 -7 30 -15z"/>
<path d="M16616 7814 c-31 -30 -9 -84 34 -84 24 0 50 26 50 50 0 24 -26 50
-50 50 -10 0 -26 -7 -34 -16z m64 -9 c26 -32 -13 -81 -47 -59 -35 22 -23 74
17 74 10 0 23 -7 30 -15z"/>
<path d="M4944 7778 l-29 -33 33 29 c17 17 32 31 32 33 0 8 -8 1 -36 -29z"/>
<path d="M15744 7778 l-29 -33 33 29 c30 28 37 36 29 36 -2 0 -16 -15 -33 -32z"/>
<path d="M3138 7703 c6 -2 18 -2 25 0 6 3 1 5 -13 5 -14 0 -19 -2 -12 -5z"/>
<path d="M10338 7703 c6 -2 18 -2 25 0 6 3 1 5 -13 5 -14 0 -19 -2 -12 -5z"/>
<path d="M13938 7703 c6 -2 18 -2 25 0 6 3 1 5 -13 5 -14 0 -19 -2 -12 -5z"/>
<path d="M3135 6890 c-359 -359 -447 -452 -437 -462 10 -10 103 78 462 437
248 248 449 454 447 459 -2 6 -7 11 -13 13 -5 2 -211 -199 -459 -447z"/>
<path d="M13935 6890 c-359 -359 -447 -452 -437 -462 10 -10 103 78 462 437
248 248 449 454 447 459 -2 6 -7 11 -13 13 -5 2 -211 -199 -459 -447z"/>
<path d="M1345 6878 l-90 -93 93 90 c85 83 97 95 89 95 -1 0 -43 -42 -92 -92z"/>
<path d="M4945 6878 l-90 -93 93 90 c50 49 92 91 92 92 0 8 -12 -4 -95 -89z"/>
<path d="M5845 6878 l-90 -93 93 90 c85 83 97 95 89 95 -1 0 -43 -42 -92 -92z"/>
<path d="M8545 6878 l-90 -93 93 90 c85 83 97 95 89 95 -1 0 -43 -42 -92 -92z"/>
<path d="M12145 6878 l-90 -93 93 90 c85 83 97 95 89 95 -1 0 -43 -42 -92 -92z"/>
<path d="M15745 6878 l-90 -93 93 90 c85 83 97 95 89 95 -1 0 -43 -42 -92 -92z"/>
<path d="M16645 6878 l-90 -93 93 90 c85 83 97 95 89 95 -1 0 -43 -42 -92 -92z"/>
<path d="M395 6935 c-50 -49 -15 -135 55 -135 41 0 80 39 80 80 0 41 -39 80
-80 80 -19 0 -40 -9 -55 -25z m100 -10 c14 -13 25 -33 25 -45 0 -27 -43 -70
-70 -70 -27 0 -70 43 -70 70 0 27 43 70 70 70 12 0 32 -11 45 -25z"/>
<path d="M2238 6953 c6 -2 18 -2 25 0 6 3 1 5 -13 5 -14 0 -19 -2 -12 -5z"/>
<path d="M6738 6953 c6 -2 18 -2 25 0 6 3 1 5 -13 5 -14 0 -19 -2 -12 -5z"/>
<path d="M10338 6953 c6 -2 18 -2 25 0 6 3 1 5 -13 5 -14 0 -19 -2 -12 -5z"/>
<path d="M11195 6935 c-50 -49 -15 -135 55 -135 41 0 80 39 80 80 0 41 -39 80
-80 80 -19 0 -40 -9 -55 -25z m100 -10 c14 -13 25 -33 25 -45 0 -27 -43 -70
-70 -70 -27 0 -70 43 -70 70 0 27 43 70 70 70 11 0 32 -11 45 -25z"/>
<path d="M13038 6953 c6 -2 18 -2 25 0 6 3 1 5 -13 5 -14 0 -19 -2 -12 -5z"/>
<path d="M17538 6953 c6 -2 18 -2 25 0 6 3 1 5 -13 5 -14 0 -19 -2 -12 -5z"/>
<path d="M2190 6928 c-11 -12 -20 -34 -20 -48 0 -14 9 -36 20 -48 29 -31 36
-28 11 4 -12 15 -21 34 -21 44 0 10 9 29 21 44 25 32 18 35 -11 4z"/>
<path d="M2299 6924 c12 -15 21 -34 21 -44 0 -10 -9 -29 -21 -44 -25 -32 -18
-35 11 -4 11 12 20 34 20 48 0 14 -9 36 -20 48 -29 31 -36 28 -11 -4z"/>
<path d="M6690 6928 c-11 -12 -20 -34 -20 -48 0 -14 9 -36 20 -48 29 -31 36
-28 11 4 -12 15 -21 34 -21 44 0 10 9 29 21 44 25 32 18 35 -11 4z"/>
<path d="M6799 6924 c12 -15 21 -34 21 -44 0 -10 -9 -29 -21 -44 -25 -32 -18
-35 11 -4 11 12 20 34 20 48 0 14 -9 36 -20 48 -29 31 -36 28 -11 -4z"/>
<path d="M10290 6928 c-11 -12 -20 -34 -20 -48 0 -14 9 -36 20 -48 29 -31 36
-28 11 4 -12 15 -21 34 -21 44 0 10 9 29 21 44 25 32 18 35 -11 4z"/>
<path d="M10399 6924 c12 -15 21 -34 21 -44 0 -10 -9 -29 -21 -44 -25 -32 -18
-35 11 -4 11 12 20 34 20 48 0 14 -9 36 -20 48 -29 31 -36 28 -11 -4z"/>
<path d="M12990 6928 c-11 -12 -20 -34 -20 -48 0 -14 9 -36 20 -48 29 -31 36
-28 11 4 -12 15 -21 34 -21 44 0 10 9 29 21 44 25 32 18 35 -11 4z"/>
<path d="M13099 6924 c12 -15 21 -34 21 -44 0 -10 -9 -29 -21 -44 -25 -32 -18
-35 11 -4 11 12 20 34 20 48 0 14 -9 36 -20 48 -29 31 -36 28 -11 -4z"/>
<path d="M17490 6928 c-11 -12 -20 -34 -20 -48 0 -14 9 -36 20 -48 29 -31 36
-28 11 4 -12 15 -21 34 -21 44 0 10 9 29 21 44 25 32 18 35 -11 4z"/>
<path d="M17599 6924 c12 -15 21 -34 21 -44 0 -10 -9 -29 -21 -44 -25 -32 -18
-35 11 -4 11 12 20 34 20 48 0 14 -9 36 -20 48 -29 31 -36 28 -11 -4z"/>
<path d="M7644 6878 l-29 -33 33 29 c30 28 37 36 29 36 -2 0 -16 -15 -33 -32z"/>
<path d="M4030 6880 c0 -13 7 -20 20 -20 13 0 20 7 20 20 0 13 -7 20 -20 20
-13 0 -20 -7 -20 -20z m30 0 c0 -5 -4 -10 -10 -10 -5 0 -10 5 -10 10 0 6 5 10
10 10 6 0 10 -4 10 -10z"/>
<path d="M9430 6880 c0 -13 7 -20 20 -20 13 0 20 7 20 20 0 13 -7 20 -20 20
-13 0 -20 -7 -20 -20z m30 0 c0 -5 -4 -10 -10 -10 -5 0 -10 5 -10 10 0 6 5 10
10 10 6 0 10 -4 10 -10z"/>
<path d="M14830 6880 c0 -13 7 -20 20 -20 13 0 20 7 20 20 0 13 -7 20 -20 20
-13 0 -20 -7 -20 -20z m30 0 c0 -5 -4 -10 -10 -10 -5 0 -10 5 -10 10 0 6 5 10
10 10 6 0 10 -4 10 -10z"/>
<path d="M2238 6803 c6 -2 18 -2 25 0 6 3 1 5 -13 5 -14 0 -19 -2 -12 -5z"/>
<path d="M6738 6803 c6 -2 18 -2 25 0 6 3 1 5 -13 5 -14 0 -19 -2 -12 -5z"/>
<path d="M10338 6803 c6 -2 18 -2 25 0 6 3 1 5 -13 5 -14 0 -19 -2 -12 -5z"/>
<path d="M13038 6803 c6 -2 18 -2 25 0 6 3 1 5 -13 5 -14 0 -19 -2 -12 -5z"/>
<path d="M17538 6803 c6 -2 18 -2 25 0 6 3 1 5 -13 5 -14 0 -19 -2 -12 -5z"/>
<path d="M4045 5978 l-90 -93 93 90 c85 83 97 95 89 95 -1 0 -43 -42 -92 -92z"/>
<path d="M4945 5978 l-90 -93 93 90 c50 49 92 91 92 92 0 8 -12 -4 -95 -89z"/>
<path d="M10345 5978 l-90 -93 93 90 c85 83 97 95 89 95 -1 0 -43 -42 -92 -92z"/>
<path d="M14845 5978 l-90 -93 93 90 c85 83 97 95 89 95 -1 0 -43 -42 -92 -92z"/>
<path d="M15745 5978 l-90 -93 93 90 c85 83 97 95 89 95 -1 0 -43 -42 -92 -92z"/>
<path d="M3138 6053 c6 -2 18 -2 25 0 6 3 1 5 -13 5 -14 0 -19 -2 -12 -5z"/>
<path d="M7595 6035 c-16 -15 -25 -36 -25 -55 0 -19 9 -40 25 -55 15 -16 36
-25 55 -25 19 0 40 9 55 25 16 15 25 36 25 55 0 19 -9 40 -25 55 -15 16 -36
25 -55 25 -19 0 -40 -9 -55 -25z m100 -10 c14 -13 25 -33 25 -45 0 -11 -11
-32 -25 -45 -13 -14 -33 -25 -45 -25 -11 0 -32 11 -45 25 -14 13 -25 34 -25
45 0 12 11 32 25 45 13 14 34 25 45 25 12 0 32 -11 45 -25z"/>
<path d="M9395 6035 c-16 -15 -25 -36 -25 -55 0 -19 9 -40 25 -55 15 -16 36
-25 55 -25 19 0 40 9 55 25 16 15 25 36 25 55 0 19 -9 40 -25 55 -15 16 -36
25 -55 25 -19 0 -40 -9 -55 -25z m100 -10 c14 -13 25 -33 25 -45 0 -11 -11
-32 -25 -45 -13 -14 -33 -25 -45 -25 -11 0 -32 11 -45 25 -14 13 -25 34 -25
45 0 12 11 32 25 45 13 14 34 25 45 25 12 0 32 -11 45 -25z"/>
<path d="M13938 6053 c6 -2 18 -2 25 0 6 3 1 5 -13 5 -14 0 -19 -2 -12 -5z"/>
<path d="M3090 6028 c-11 -12 -20 -34 -20 -48 0 -14 9 -36 20 -48 29 -31 36
-28 11 4 -12 15 -21 34 -21 44 0 10 9 29 21 44 25 32 18 35 -11 4z"/>
<path d="M3199 6024 c12 -15 21 -34 21 -44 0 -10 -9 -29 -21 -44 -25 -32 -18
-35 11 -4 11 12 20 34 20 48 0 14 -9 36 -20 48 -29 31 -36 28 -11 -4z"/>
<path d="M13890 6028 c-11 -12 -20 -34 -20 -48 0 -14 9 -36 20 -48 29 -31 36
-28 11 4 -12 15 -21 34 -21 44 0 10 9 29 21 44 25 32 18 35 -11 4z"/>
<path d="M13999 6024 c12 -15 21 -34 21 -44 0 -10 -9 -29 -21 -44 -25 -32 -18
-35 11 -4 11 12 20 34 20 48 0 14 -9 36 -20 48 -29 31 -36 28 -11 -4z"/>
<path d="M1317 6012 c-22 -24 -21 -45 1 -65 24 -22 45 -21 65 1 22 24 21 45
-1 65 -24 22 -45 21 -65 -1z m63 -7 c26 -32 -13 -81 -47 -59 -35 22 -23 74 17
74 10 0 23 -7 30 -15z"/>
<path d="M12117 6012 c-22 -24 -21 -45 1 -65 24 -22 45 -21 65 1 22 24 21 45
-1 65 -24 22 -45 21 -65 -1z m63 -7 c26 -32 -13 -81 -47 -59 -35 22 -23 74 17
74 10 0 23 -7 30 -15z"/>
<path d="M444 5978 l-29 -33 33 29 c30 28 37 36 29 36 -2 0 -16 -15 -33 -32z"/>
<path d="M5844 5978 l-29 -33 33 29 c30 28 37 36 29 36 -2 0 -16 -15 -33 -32z"/>
<path d="M6744 5978 l-29 -33 33 29 c30 28 37 36 29 36 -2 0 -16 -15 -33 -32z"/>
<path d="M8544 5978 l-29 -33 33 29 c30 28 37 36 29 36 -2 0 -16 -15 -33 -32z"/>
<path d="M11244 5978 l-29 -33 33 29 c30 28 37 36 29 36 -2 0 -16 -15 -33 -32z"/>
<path d="M16644 5978 l-29 -33 33 29 c30 28 37 36 29 36 -2 0 -16 -15 -33 -32z"/>
<path d="M17544 5978 l-29 -33 33 29 c30 28 37 36 29 36 -2 0 -16 -15 -33 -32z"/>
<path d="M2234 5989 c-10 -17 13 -36 27 -22 12 12 4 33 -11 33 -5 0 -12 -5
-16 -11z m26 -9 c0 -5 -4 -10 -10 -10 -5 0 -10 5 -10 10 0 6 5 10 10 10 6 0
10 -4 10 -10z"/>
<path d="M13034 5989 c-10 -17 13 -36 27 -22 12 12 4 33 -11 33 -5 0 -12 -5
-16 -11z m26 -9 c0 -5 -4 -10 -10 -10 -5 0 -10 5 -10 10 0 6 5 10 10 10 6 0
10 -4 10 -10z"/>
<path d="M3138 5903 c6 -2 18 -2 25 0 6 3 1 5 -13 5 -14 0 -19 -2 -12 -5z"/>
<path d="M13938 5903 c6 -2 18 -2 25 0 6 3 1 5 -13 5 -14 0 -19 -2 -12 -5z"/>
<path d="M3135 5090 c-359 -359 -447 -452 -437 -462 10 -10 103 78 462 437
248 248 449 454 447 459 -2 6 -7 11 -13 13 -5 2 -211 -199 -459 -447z"/>
<path d="M4490 4645 c-492 -492 -895 -901 -895 -907 0 -7 6 -13 13 -13 16 0
1803 1787 1799 1799 -2 6 -7 11 -13 13 -5 2 -412 -400 -904 -892z"/>
<path d="M13935 5090 c-359 -359 -447 -452 -437 -462 10 -10 103 78 462 437
248 248 449 454 447 459 -2 6 -7 11 -13 13 -5 2 -211 -199 -459 -447z"/>
<path d="M15290 4645 c-492 -492 -895 -901 -895 -907 0 -7 6 -13 13 -13 16 0
1803 1787 1799 1799 -2 6 -7 11 -13 13 -5 2 -412 -400 -904 -892z"/>
<path d="M4045 5078 l-90 -93 93 90 c85 83 97 95 89 95 -1 0 -43 -42 -92 -92z"/>
<path d="M8545 5078 l-90 -93 93 90 c50 49 92 91 92 92 0 8 -12 -4 -95 -89z"/>
<path d="M10345 5078 l-90 -93 93 90 c50 49 92 91 92 92 0 8 -12 -4 -95 -89z"/>
<path d="M14845 5078 l-90 -93 93 90 c50 49 92 91 92 92 0 8 -12 -4 -95 -89z"/>
<path d="M1338 5153 c6 -2 18 -2 25 0 6 3 1 5 -13 5 -14 0 -19 -2 -12 -5z"/>
<path d="M5795 5135 c-50 -49 -15 -135 55 -135 41 0 80 39 80 80 0 41 -39 80
-80 80 -19 0 -40 -9 -55 -25z m100 -10 c14 -13 25 -33 25 -45 0 -27 -43 -70
-70 -70 -27 0 -70 43 -70 70 0 27 43 70 70 70 12 0 32 -11 45 -25z"/>
<path d="M7595 5135 c-50 -49 -15 -135 55 -135 41 0 80 39 80 80 0 41 -39 80
-80 80 -19 0 -40 -9 -55 -25z m100 -10 c14 -13 25 -33 25 -45 0 -27 -43 -70
-70 -70 -27 0 -70 43 -70 70 0 27 43 70 70 70 12 0 32 -11 45 -25z"/>
<path d="M12138 5153 c6 -2 18 -2 25 0 6 3 1 5 -13 5 -14 0 -19 -2 -12 -5z"/>
<path d="M16595 5135 c-50 -49 -15 -135 55 -135 41 0 80 39 80 80 0 41 -39 80
-80 80 -19 0 -40 -9 -55 -25z m100 -10 c14 -13 25 -33 25 -45 0 -27 -43 -70
-70 -70 -27 0 -70 43 -70 70 0 27 43 70 70 70 12 0 32 -11 45 -25z"/>
<path d="M1290 5128 c-11 -12 -20 -34 -20 -48 0 -14 9 -36 20 -48 29 -31 36
-28 11 4 -12 15 -21 34 -21 44 0 10 9 29 21 44 25 32 18 35 -11 4z"/>
<path d="M1399 5124 c12 -15 21 -34 21 -44 0 -10 -9 -29 -21 -44 -25 -32 -18
-35 11 -4 11 12 20 34 20 48 0 14 -9 36 -20 48 -29 31 -36 28 -11 -4z"/>
<path d="M12090 5128 c-11 -12 -20 -34 -20 -48 0 -14 9 -36 20 -48 29 -31 36
-28 11 4 -12 15 -21 34 -21 44 0 10 9 29 21 44 25 32 18 35 -11 4z"/>
<path d="M12199 5124 c12 -15 21 -34 21 -44 0 -10 -9 -29 -21 -44 -25 -32 -18
-35 11 -4 11 12 20 34 20 48 0 14 -9 36 -20 48 -29 31 -36 28 -11 -4z"/>
<path d="M2217 5112 c-22 -24 -21 -45 1 -65 24 -22 45 -21 65 1 22 24 21 45
-1 65 -24 22 -45 21 -65 -1z m63 -7 c26 -32 -13 -81 -47 -59 -35 22 -23 74 17
74 10 0 23 -7 30 -15z"/>
<path d="M13017 5112 c-22 -24 -21 -45 1 -65 24 -22 45 -21 65 1 22 24 21 45
-1 65 -24 22 -45 21 -65 -1z m63 -7 c26 -32 -13 -81 -47 -59 -35 22 -23 74 17
74 10 0 23 -7 30 -15z"/>
<path d="M430 5080 c0 -13 7 -20 20 -20 13 0 20 7 20 20 0 13 -7 20 -20 20
-13 0 -20 -7 -20 -20z m30 0 c0 -5 -4 -10 -10 -10 -5 0 -10 5 -10 10 0 6 5 10
10 10 6 0 10 -4 10 -10z"/>
<path d="M6734 5089 c-10 -17 13 -36 27 -22 12 12 4 33 -11 33 -5 0 -12 -5
-16 -11z m26 -9 c0 -5 -4 -10 -10 -10 -5 0 -10 5 -10 10 0 6 5 10 10 10 6 0
10 -4 10 -10z"/>
<path d="M9430 5080 c0 -13 7 -20 20 -20 13 0 20 7 20 20 0 13 -7 20 -20 20
-13 0 -20 -7 -20 -20z m30 0 c0 -5 -4 -10 -10 -10 -5 0 -10 5 -10 10 0 6 5 10
10 10 6 0 10 -4 10 -10z"/>
<path d="M11230 5080 c0 -13 7 -20 20 -20 13 0 20 7 20 20 0 13 -7 20 -20 20
-13 0 -20 -7 -20 -20z m30 0 c0 -5 -4 -10 -10 -10 -5 0 -10 5 -10 10 0 6 5 10
10 10 6 0 10 -4 10 -10z"/>
<path d="M17534 5089 c-10 -17 13 -36 27 -22 12 12 4 33 -11 33 -5 0 -12 -5
-16 -11z m26 -9 c0 -5 -4 -10 -10 -10 -5 0 -10 5 -10 10 0 6 5 10 10 10 6 0
10 -4 10 -10z"/>
<path d="M1338 5003 c6 -2 18 -2 25 0 6 3 1 5 -13 5 -14 0 -19 -2 -12 -5z"/>
<path d="M12138 5003 c6 -2 18 -2 25 0 6 3 1 5 -13 5 -14 0 -19 -2 -12 -5z"/>
<path d="M445 4178 l-90 -93 93 90 c85 83 97 95 89 95 -1 0 -43 -42 -92 -92z"/>
<path d="M2245 4178 l-90 -93 93 90 c85 83 97 95 89 95 -1 0 -43 -42 -92 -92z"/>
<path d="M3145 4178 l-90 -93 93 90 c85 83 97 95 89 95 -1 0 -43 -42 -92 -92z"/>
<path d="M11245 4178 l-90 -93 93 90 c50 49 92 91 92 92 0 8 -12 -4 -95 -89z"/>
<path d="M13045 4178 l-90 -93 93 90 c50 49 92 91 92 92 0 8 -12 -4 -95 -89z"/>
<path d="M13945 4178 l-90 -93 93 90 c50 49 92 91 92 92 0 8 -12 -4 -95 -89z"/>
<path d="M4895 4235 c-16 -15 -25 -36 -25 -55 0 -19 9 -40 25 -55 15 -16 36
-25 55 -25 19 0 40 9 55 25 16 15 25 36 25 55 0 19 -9 40 -25 55 -15 16 -36
25 -55 25 -19 0 -40 -9 -55 -25z m100 -10 c14 -13 25 -33 25 -45 0 -11 -11
-32 -25 -45 -13 -14 -33 -25 -45 -25 -11 0 -32 11 -45 25 -14 13 -25 34 -25
45 0 12 11 32 25 45 31 32 59 32 90 0z"/>
<path d="M5795 4235 c-50 -49 -15 -135 55 -135 41 0 80 39 80 80 0 41 -39 80
-80 80 -19 0 -40 -9 -55 -25z m100 -10 c14 -13 25 -33 25 -45 0 -27 -43 -70
-70 -70 -27 0 -70 43 -70 70 0 27 43 70 70 70 12 0 32 -11 45 -25z"/>
<path d="M6738 4253 c6 -2 18 -2 25 0 6 3 1 5 -13 5 -14 0 -19 -2 -12 -5z"/>
<path d="M8495 4235 c-50 -49 -15 -135 55 -135 41 0 80 39 80 80 0 41 -39 80
-80 80 -19 0 -40 -9 -55 -25z m100 -10 c14 -13 25 -33 25 -45 0 -27 -43 -70
-70 -70 -27 0 -70 43 -70 70 0 27 43 70 70 70 12 0 32 -11 45 -25z"/>
<path d="M10338 4253 c6 -2 18 -2 25 0 6 3 1 5 -13 5 -14 0 -19 -2 -12 -5z"/>
<path d="M15695 4235 c-50 -49 -15 -135 55 -135 41 0 80 39 80 80 0 41 -39 80
-80 80 -19 0 -40 -9 -55 -25z m100 -10 c14 -13 25 -33 25 -45 0 -27 -43 -70
-70 -70 -27 0 -70 43 -70 70 0 27 43 70 70 70 11 0 32 -11 45 -25z"/>
<path d="M16595 4235 c-50 -49 -15 -135 55 -135 41 0 80 39 80 80 0 41 -39 80
-80 80 -19 0 -40 -9 -55 -25z m100 -10 c14 -13 25 -33 25 -45 0 -27 -43 -70
-70 -70 -27 0 -70 43 -70 70 0 27 43 70 70 70 12 0 32 -11 45 -25z"/>
<path d="M17538 4253 c6 -2 18 -2 25 0 6 3 1 5 -13 5 -14 0 -19 -2 -12 -5z"/>
<path d="M6690 4228 c-11 -12 -20 -34 -20 -48 0 -14 9 -36 20 -48 29 -31 36
-28 11 4 -12 15 -21 34 -21 44 0 10 9 29 21 44 25 32 18 35 -11 4z"/>
<path d="M6799 4224 c12 -15 21 -34 21 -44 0 -10 -9 -29 -21 -44 -25 -32 -18
-35 11 -4 11 12 20 34 20 48 0 14 -9 36 -20 48 -29 31 -36 28 -11 -4z"/>
<path d="M10290 4228 c-11 -12 -20 -34 -20 -48 0 -14 9 -36 20 -48 29 -31 36
-28 11 4 -12 15 -21 34 -21 44 0 10 9 29 21 44 25 32 18 35 -11 4z"/>
<path d="M10399 4224 c12 -15 21 -34 21 -44 0 -10 -9 -29 -21 -44 -25 -32 -18
-35 11 -4 11 12 20 34 20 48 0 14 -9 36 -20 48 -29 31 -36 28 -11 -4z"/>
<path d="M17490 4228 c-11 -12 -20 -34 -20 -48 0 -14 9 -36 20 -48 29 -31 36
-28 11 4 -12 15 -21 34 -21 44 0 10 9 29 21 44 25 32 18 35 -11 4z"/>
<path d="M17599 4224 c12 -15 21 -34 21 -44 0 -10 -9 -29 -21 -44 -25 -32 -18
-35 11 -4 11 12 20 34 20 48 0 14 -9 36 -20 48 -29 31 -36 28 -11 -4z"/>
<path d="M9416 4214 c-31 -30 -9 -84 34 -84 24 0 50 26 50 50 0 24 -26 50 -50
50 -10 0 -26 -7 -34 -16z m64 -9 c26 -32 -13 -81 -47 -59 -35 22 -23 74 17 74
10 0 23 -7 30 -15z"/>
<path d="M7644 4178 l-29 -33 33 29 c17 17 32 31 32 33 0 8 -8 1 -36 -29z"/>
<path d="M1334 4189 c-10 -17 13 -36 27 -22 12 12 4 33 -11 33 -5 0 -12 -5
-16 -11z m26 -9 c0 -5 -4 -10 -10 -10 -5 0 -10 5 -10 10 0 6 5 10 10 10 6 0
10 -4 10 -10z"/>
<path d="M12134 4189 c-10 -17 13 -36 27 -22 12 12 4 33 -11 33 -5 0 -12 -5
-16 -11z m26 -9 c0 -5 -4 -10 -10 -10 -5 0 -10 5 -10 10 0 6 5 10 10 10 6 0
10 -4 10 -10z"/>
<path d="M6738 4103 c6 -2 18 -2 25 0 6 3 1 5 -13 5 -14 0 -19 -2 -12 -5z"/>
<path d="M10338 4103 c6 -2 18 -2 25 0 6 3 1 5 -13 5 -14 0 -19 -2 -12 -5z"/>
<path d="M17538 4103 c6 -2 18 -2 25 0 6 3 1 5 -13 5 -14 0 -19 -2 -12 -5z"/>
<path d="M445 3278 l-90 -93 93 90 c85 83 97 95 89 95 -1 0 -43 -42 -92 -92z"/>
<path d="M1345 3278 l-90 -93 93 90 c85 83 97 95 89 95 -1 0 -43 -42 -92 -92z"/>
<path d="M4945 3278 l-90 -93 93 90 c85 83 97 95 89 95 -1 0 -43 -42 -92 -92z"/>
<path d="M5845 3278 l-90 -93 93 90 c50 49 92 91 92 92 0 8 -12 -4 -95 -89z"/>
<path d="M6745 3278 l-90 -93 93 90 c50 49 92 91 92 92 0 8 -12 -4 -95 -89z"/>
<path d="M11245 3278 l-90 -93 93 90 c50 49 92 91 92 92 0 8 -12 -4 -95 -89z"/>
<path d="M12145 3278 l-90 -93 93 90 c50 49 92 91 92 92 0 8 -12 -4 -95 -89z"/>
<path d="M15745 3278 l-90 -93 93 90 c50 49 92 91 92 92 0 8 -12 -4 -95 -89z"/>
<path d="M16645 3278 l-90 -93 93 90 c50 49 92 91 92 92 0 8 -12 -4 -95 -89z"/>
<path d="M17545 3278 l-90 -93 93 90 c50 49 92 91 92 92 0 8 -12 -4 -95 -89z"/>
<path d="M2238 3353 c6 -2 18 -2 25 0 6 3 1 5 -13 5 -14 0 -19 -2 -12 -5z"/>
<path d="M3995 3335 c-16 -15 -25 -36 -25 -55 0 -19 9 -40 25 -55 15 -16 36
-25 55 -25 19 0 40 9 55 25 16 15 25 36 25 55 0 19 -9 40 -25 55 -15 16 -36
25 -55 25 -19 0 -40 -9 -55 -25z m100 -10 c14 -13 25 -33 25 -45 0 -11 -11
-32 -25 -45 -13 -14 -33 -25 -45 -25 -11 0 -32 11 -45 25 -14 13 -25 34 -25
45 0 12 11 32 25 45 31 32 59 32 90 0z"/>
<path d="M9395 3335 c-50 -49 -15 -135 55 -135 41 0 80 39 80 80 0 41 -39 80
-80 80 -19 0 -40 -9 -55 -25z m100 -10 c14 -13 25 -33 25 -45 0 -27 -43 -70
-70 -70 -27 0 -70 43 -70 70 0 27 43 70 70 70 12 0 32 -11 45 -25z"/>
<path d="M13038 3353 c6 -2 18 -2 25 0 6 3 1 5 -13 5 -14 0 -19 -2 -12 -5z"/>
<path d="M14795 3335 c-50 -49 -15 -135 55 -135 41 0 80 39 80 80 0 41 -39 80
-80 80 -19 0 -40 -9 -55 -25z m100 -10 c14 -13 25 -33 25 -45 0 -27 -43 -70
-70 -70 -27 0 -70 43 -70 70 0 27 43 70 70 70 11 0 32 -11 45 -25z"/>
<path d="M2190 3328 c-11 -12 -20 -34 -20 -48 0 -14 9 -36 20 -48 29 -31 36
-28 11 4 -12 15 -21 34 -21 44 0 10 9 29 21 44 25 32 18 35 -11 4z"/>
<path d="M2299 3324 c12 -15 21 -34 21 -44 0 -10 -9 -29 -21 -44 -25 -32 -18
-35 11 -4 11 12 20 34 20 48 0 14 -9 36 -20 48 -29 31 -36 28 -11 -4z"/>
<path d="M12990 3328 c-11 -12 -20 -34 -20 -48 0 -14 9 -36 20 -48 29 -31 36
-28 11 4 -12 15 -21 34 -21 44 0 10 9 29 21 44 25 32 18 35 -11 4z"/>
<path d="M13099 3324 c12 -15 21 -34 21 -44 0 -10 -9 -29 -21 -44 -25 -32 -18
-35 11 -4 11 12 20 34 20 48 0 14 -9 36 -20 48 -29 31 -36 28 -11 -4z"/>
<path d="M3144 3278 l-29 -33 33 29 c30 28 37 36 29 36 -2 0 -16 -15 -33 -32z"/>
<path d="M7644 3278 l-29 -33 33 29 c17 17 32 31 32 33 0 8 -8 1 -36 -29z"/>
<path d="M8544 3278 l-29 -33 33 29 c17 17 32 31 32 33 0 8 -8 1 -36 -29z"/>
<path d="M10344 3278 l-29 -33 33 29 c30 28 37 36 29 36 -2 0 -16 -15 -33 -32z"/>
<path d="M13944 3278 l-29 -33 33 29 c30 28 37 36 29 36 -2 0 -16 -15 -33 -32z"/>
<path d="M2238 3203 c6 -2 18 -2 25 0 6 3 1 5 -13 5 -14 0 -19 -2 -12 -5z"/>
<path d="M13038 3203 c6 -2 18 -2 25 0 6 3 1 5 -13 5 -14 0 -19 -2 -12 -5z"/>
<path d="M5835 2390 c-359 -359 -447 -452 -437 -462 10 -10 103 78 462 437
248 248 449 454 447 459 -2 6 -7 11 -13 13 -5 2 -211 -199 -459 -447z"/>
<path d="M6735 2390 c-359 -359 -447 -452 -437 -462 10 -10 103 78 462 437
248 248 449 454 447 459 -2 6 -7 11 -13 13 -5 2 -211 -199 -459 -447z"/>
<path d="M16635 2390 c-359 -359 -447 -452 -437 -462 10 -10 103 78 462 437
248 248 449 454 447 459 -2 6 -7 11 -13 13 -5 2 -211 -199 -459 -447z"/>
<path d="M17370 2225 c-227 -227 -282 -287 -272 -297 18 -18 565 529 560 561
-2 18 -54 -30 -288 -264z"/>
<path d="M1345 2378 l-90 -93 93 90 c85 83 97 95 89 95 -1 0 -43 -42 -92 -92z"/>
<path d="M3145 2378 l-90 -93 93 90 c85 83 97 95 89 95 -1 0 -43 -42 -92 -92z"/>
<path d="M8545 2378 l-90 -93 93 90 c85 83 97 95 89 95 -1 0 -43 -42 -92 -92z"/>
<path d="M9445 2378 l-90 -93 93 90 c50 49 92 91 92 92 0 8 -12 -4 -95 -89z"/>
<path d="M12145 2378 l-90 -93 93 90 c50 49 92 91 92 92 0 8 -12 -4 -95 -89z"/>
<path d="M13945 2378 l-90 -93 93 90 c50 49 92 91 92 92 0 8 -12 -4 -95 -89z"/>
<path d="M2238 2453 c6 -2 18 -2 25 0 6 3 1 5 -13 5 -14 0 -19 -2 -12 -5z"/>
<path d="M3995 2435 c-50 -49 -15 -135 55 -135 41 0 80 39 80 80 0 41 -39 80
-80 80 -19 0 -40 -9 -55 -25z m100 -10 c14 -13 25 -33 25 -45 0 -27 -43 -70
-70 -70 -27 0 -70 43 -70 70 0 27 43 70 70 70 12 0 32 -11 45 -25z"/>
<path d="M7595 2435 c-50 -49 -15 -135 55 -135 41 0 80 39 80 80 0 41 -39 80
-80 80 -19 0 -40 -9 -55 -25z m100 -10 c14 -13 25 -33 25 -45 0 -27 -43 -70
-70 -70 -27 0 -70 43 -70 70 0 27 43 70 70 70 12 0 32 -11 45 -25z"/>
<path d="M13038 2453 c6 -2 18 -2 25 0 6 3 1 5 -13 5 -14 0 -19 -2 -12 -5z"/>
<path d="M14795 2435 c-50 -49 -15 -135 55 -135 41 0 80 39 80 80 0 41 -39 80
-80 80 -19 0 -40 -9 -55 -25z m100 -10 c14 -13 25 -33 25 -45 0 -27 -43 -70
-70 -70 -27 0 -70 43 -70 70 0 27 43 70 70 70 11 0 32 -11 45 -25z"/>
<path d="M2190 2428 c-11 -12 -20 -34 -20 -48 0 -14 9 -36 20 -48 29 -31 36
-28 11 4 -12 15 -21 34 -21 44 0 10 9 29 21 44 25 32 18 35 -11 4z"/>
<path d="M2299 2424 c12 -15 21 -34 21 -44 0 -10 -9 -29 -21 -44 -25 -32 -18
-35 11 -4 11 12 20 34 20 48 0 14 -9 36 -20 48 -29 31 -36 28 -11 -4z"/>
<path d="M12990 2428 c-11 -12 -20 -34 -20 -48 0 -14 9 -36 20 -48 29 -31 36
-28 11 4 -12 15 -21 34 -21 44 0 10 9 29 21 44 25 32 18 35 -11 4z"/>
<path d="M13099 2424 c12 -15 21 -34 21 -44 0 -10 -9 -29 -21 -44 -25 -32 -18
-35 11 -4 11 12 20 34 20 48 0 14 -9 36 -20 48 -29 31 -36 28 -11 -4z"/>
<path d="M444 2378 l-29 -33 33 29 c17 17 32 31 32 33 0 8 -8 1 -36 -29z"/>
<path d="M11244 2378 l-29 -33 33 29 c30 28 37 36 29 36 -2 0 -16 -15 -33 -32z"/>
<path d="M4930 2380 c0 -13 7 -20 20 -20 13 0 20 7 20 20 0 13 -7 20 -20 20
-13 0 -20 -7 -20 -20z m30 0 c0 -5 -4 -10 -10 -10 -5 0 -10 5 -10 10 0 6 5 10
10 10 6 0 10 -4 10 -10z"/>
<path d="M10334 2389 c-10 -17 13 -36 27 -22 12 12 4 33 -11 33 -5 0 -12 -5
-16 -11z m26 -9 c0 -5 -4 -10 -10 -10 -5 0 -10 5 -10 10 0 6 5 10 10 10 6 0
10 -4 10 -10z"/>
<path d="M15730 2380 c0 -13 7 -20 20 -20 13 0 20 7 20 20 0 13 -7 20 -20 20
-13 0 -20 -7 -20 -20z m30 0 c0 -5 -4 -10 -10 -10 -5 0 -10 5 -10 10 0 6 5 10
10 10 6 0 10 -4 10 -10z"/>
<path d="M2238 2303 c6 -2 18 -2 25 0 6 3 1 5 -13 5 -14 0 -19 -2 -12 -5z"/>
<path d="M13038 2303 c6 -2 18 -2 25 0 6 3 1 5 -13 5 -14 0 -19 -2 -12 -5z"/>
<path d="M2530 1785 c-131 -131 -151 -155 -130 -155 19 0 61 35 169 144 125
126 155 166 123 166 -4 0 -77 -70 -162 -155z"/>
<path d="M13330 1785 c-131 -131 -151 -155 -130 -155 19 0 61 35 169 144 125
126 155 166 123 166 -4 0 -77 -70 -162 -155z"/>
</g>
</svg>
